# xmcd
#
# Track frame offsets:
#	150
#	10149
#	22113
#	32431
#	45392
#	55407
#	74355
#	86966
#	103386
#	117287
#	129650
#	144277
#	158496
#	168826
#	184366
#	193686
#	204541
#	216842
#	235065
#	251705
#	264412
#	276155
#
# Disc length: 3925 seconds
#
# Revision: 0
# Processed by: cddbd v1.5.2PL0 Copyright (c) Steve Scherf et al.
# Submitted via: EZCDAudioConverter 2.2.2.1
#
DISCID=400f5316
DTITLE=Ole Lindskov - I am forever country
DYEAR=1900
DGENRE=country
TTITLE0=Blue moon of Kentucky
TTITLE1=When the next teardrop falls
TTITLE2=Blue suede shoes
TTITLE3=Cracy
TTITLE4=From a Jack to a King
TTITLE5=Daddy doesn't pray anymore
TTITLE6=Detroit city
TTITLE7=Do you beleave me now
TTITLE8=Don't you ever get tired of hurting me
TTITLE9=Folsom prison blues
TTITLE10=Hearthaches by the number
TTITLE11=I lie when I drink
TTITLE12=I've got a tiger by the tail
TTITLE13=Jessico
TTITLE14=Love's gonna live here
TTITLE15=Tennessee waltz
TTITLE16=Okie from Musqogee
TTITLE17=Pizzirico
TTITLE18=Secret love
TTITLE19=Stand by your man
TTITLE20=Still not dead
TTITLE21=Always on my mind
EXTD=
EXTT0=
EXTT1=
EXTT2=
EXTT3=
EXTT4=
EXTT5=
EXTT6=
EXTT7=
EXTT8=
EXTT9=
EXTT10=
EXTT11=
EXTT12=
EXTT13=
EXTT14=
EXTT15=
EXTT16=
EXTT17=
EXTT18=
EXTT19=
EXTT20=
EXTT21=
PLAYORDER=
